<?xml version="1.0" encoding="UTF-8" standalone="no"?>
<svg
   xmlns:dc="http://purl.org/dc/elements/1.1/"
   xmlns:cc="http://creativecommons.org/ns#"
   xmlns:rdf="http://www.w3.org/1999/02/22-rdf-syntax-ns#"
   xmlns:svg="http://www.w3.org/2000/svg"
   xmlns="http://www.w3.org/2000/svg"
   xmlns:sodipodi="http://sodipodi.sourceforge.net/DTD/sodipodi-0.dtd"
   xmlns:inkscape="http://www.inkscape.org/namespaces/inkscape"
   width="700"
   height="700"
   viewBox="0 0 700 700"
   version="1.1"
   id="svg21"
   sodipodi:docname="mikasa-logo.svg"
   style="fill:none"
   inkscape:version="0.92.0 r15299"
   inkscape:export-filename="C:\Users\suitedoalex\sites\mikasa-logo-0.png"
   inkscape:export-xdpi="561.73712"
   inkscape:export-ydpi="561.73712">
  <metadata
     id="metadata25">
    <rdf:RDF>
      <cc:Work
         rdf:about="">
        <dc:format>image/svg+xml</dc:format>
        <dc:type
           rdf:resource="http://purl.org/dc/dcmitype/StillImage" />
        <dc:title></dc:title>
      </cc:Work>
    </rdf:RDF>
  </metadata>
  <sodipodi:namedview
     pagecolor="#ffffff"
     bordercolor="#666666"
     borderopacity="1"
     objecttolerance="10"
     gridtolerance="10"
     guidetolerance="10"
     inkscape:pageopacity="0"
     inkscape:pageshadow="2"
     inkscape:window-width="1920"
     inkscape:window-height="1017"
     id="namedview23"
     showgrid="false"
     inkscape:zoom="0.9255079"
     inkscape:cx="220.26708"
     inkscape:cy="322.07926"
     inkscape:window-x="-8"
     inkscape:window-y="-8"
     inkscape:window-maximized="1"
     inkscape:current-layer="svg21" />
  <defs
     id="defs19">
    <clipPath
       id="clip0_201_2">
      <rect
         width="443"
         height="118"
         id="rect16"
         x="0"
         y="0"
         style="fill:#ffffff" />
    </clipPath>
  </defs>
  <path
     inkscape:connector-curvature="0"
     style="fill:#071689;fill-opacity:1;stroke-width:2.37976384"
     d="M 414.11083,338.76753 H 378.3192 l -33.0549,82.22082 -1.54685,-1.90384 -30.65136,-38.31417 39.69445,-42.02661 h -35.03011 l -33.3167,37.69546 v -37.67166 h -30.03261 v 89.85985 h 30.03261 v -40.07521 l 30.29439,40.07521 h 58.4232 l 5.9256,-15.34947 h 34.26859 l 5.92563,15.34947 h 30.96071 z m -28.03361,56.4004 10.11397,-30.3182 10.11403,30.3182 z"
     id="path2-5"
     inkscape:export-filename="C:\Users\suitedoalex\sites\mikasa-logo-4.png"
     inkscape:export-xdpi="64.544235"
     inkscape:export-ydpi="64.544235" />
  <path
     inkscape:connector-curvature="0"
     style="fill:#071689;fill-opacity:1;stroke-width:2.37976384"
     d="m 616.50972,428.62738 h 30.9607 l -36.1248,-89.85985 h -35.79164 l -36.12481,89.85985 h 30.96072 l 5.92563,-15.34947 h 34.26857 z m -33.1739,-33.45945 10.11397,-30.3182 10.11399,30.3182 z"
     id="path4-0"
     inkscape:export-filename="C:\Users\suitedoalex\sites\mikasa-logo-4.png"
     inkscape:export-xdpi="64.544235"
     inkscape:export-ydpi="64.544235" />
  <polygon
     style="fill:#071689;fill-opacity:1"
     points="79.33,66.59 79.33,47.71 79.33,28.83 73.33,28.83 66.39,28.83 66.39,47.71 66.39,66.59 73.33,66.59 "
     id="polygon6"
     transform="matrix(2.3797634,0,0,2.3797634,52.529575,270.15894)"
     inkscape:export-filename="C:\Users\suitedoalex\sites\mikasa-logo-4.png"
     inkscape:export-xdpi="64.544235"
     inkscape:export-ydpi="64.544235" />
  <path
     inkscape:connector-curvature="0"
     style="fill:#071689;fill-opacity:1;stroke-width:2.37976384"
     d="m 476.6748,393.00233 c -10.39957,-0.71394 -16.37275,-1.21368 -22.20318,-6.75853 -3.78382,-3.61723 -7.09169,-9.66184 -7.09169,-20.82292 0,-11.16109 2.85572,-17.1819 7.87701,-21.48926 8.01981,-6.87752 23.55966,-6.71095 39.98003,-6.71095 25.20169,0 32.84074,2.11799 40.14661,11.1611 2.64155,3.26029 4.87852,10.78031 5.30687,18.9667 h -27.81944 c 0.54736,-7.85322 -9.04309,-8.28158 -19.46644,-8.28158 -7.56767,0 -20.84674,-0.47594 -21.2989,6.66334 -0.49977,7.42487 8.85271,6.82992 16.06341,7.1631 0,0 15.32566,0.61873 26.58194,1.11847 11.99402,0.54734 16.08721,3.52206 19.49027,6.87753 5.21169,5.14028 6.35398,14.112 6.35398,21.22749 0,24.74951 -16.0634,27.72424 -43.66865,27.72424 -27.60527,0 -33.95924,-2.1656 -40.4084,-7.73423 -4.54533,-3.92662 -8.42437,-10.99449 -8.42437,-22.46497 h 27.01031 c -0.54733,7.85322 10.87553,8.28155 21.27511,8.28155 7.56762,0 18.56214,0.57116 19.49025,-6.63949 0.9757,-7.37728 -7.0441,-6.85374 -14.25478,-7.18691 0.0239,0.0477 -13.68364,-0.33317 -24.93993,-1.09469"
     id="path8-0"
     inkscape:export-filename="C:\Users\suitedoalex\sites\mikasa-logo-4.png"
     inkscape:export-xdpi="64.544235"
     inkscape:export-ydpi="64.544235" />
  <polygon
     style="fill:#071689;fill-opacity:1"
     points="64.68,25.17 72.86,19.23 81.04,25.17 77.92,15.56 86.1,9.61 75.99,9.61 72.86,0 69.74,9.61 59.63,9.61 67.81,15.56 "
     id="polygon10"
     transform="matrix(2.3797634,0,0,2.3797634,52.529575,270.15894)"
     inkscape:export-filename="C:\Users\suitedoalex\sites\mikasa-logo-4.png"
     inkscape:export-xdpi="64.544235"
     inkscape:export-ydpi="64.544235" />
  <polygon
     style="fill:#071689;fill-opacity:1"
     points="51.03,20.64 37.77,20.64 31.65,39.8 25.57,20.64 12.31,20.64 0,66.59 14.04,66.59 19.33,43.2 26.03,66.59 37.31,66.59 44.01,43.2 49.3,66.59 63.34,66.59 "
     id="polygon12"
     transform="matrix(2.3797634,0,0,2.3797634,52.529575,270.15894)"
     inkscape:export-filename="C:\Users\suitedoalex\sites\mikasa-logo-4.png"
     inkscape:export-xdpi="64.544235"
     inkscape:export-ydpi="64.544235" />
</svg>
